<?xml version="1.0" encoding="UTF-8" standalone="no"?>
<!-- Created with Inkscape (http://www.inkscape.org/) -->

<svg
   xmlns:dc="http://purl.org/dc/elements/1.1/"
   xmlns:cc="http://creativecommons.org/ns#"
   xmlns:rdf="http://www.w3.org/1999/02/22-rdf-syntax-ns#"
   xmlns:svg="http://www.w3.org/2000/svg"
   xmlns="http://www.w3.org/2000/svg"
   xmlns:xlink="http://www.w3.org/1999/xlink"
   xmlns:sodipodi="http://sodipodi.sourceforge.net/DTD/sodipodi-0.dtd"
   xmlns:inkscape="http://www.inkscape.org/namespaces/inkscape"
   width="512"
   height="512"
   id="svg3853"
   version="1.1"
   inkscape:version="0.48.2 r9819"
   sodipodi:docname="icon3.svg"
   inkscape:export-filename="D:\Google-Code-SVN\beam-cable-auto-authenticator\icon-src\icon3.png"
   inkscape:export-xdpi="90"
   inkscape:export-ydpi="90">
  <defs
     id="defs3855">
    <linearGradient
       id="linearGradient4546">
      <stop
         style="stop-color:#757575;stop-opacity:1;"
         offset="0"
         id="stop4548" />
      <stop
         id="stop4556"
         offset="0.25"
         style="stop-color:#49c449;stop-opacity:1" />
      <stop
         id="stop4554"
         offset="0.61619884"
         style="stop-color:#a8ffa8;stop-opacity:1" />
      <stop
         style="stop-color:#000000;stop-opacity:0;"
         offset="1"
         id="stop4550" />
    </linearGradient>
    <linearGradient
       id="linearGradient4536">
      <stop
         id="stop4544"
         offset="0"
         style="stop-color:#4e725d;stop-opacity:0.24347825;" />
      <stop
         style="stop-color:#000000;stop-opacity:0;"
         offset="1"
         id="stop4540" />
    </linearGradient>
    <radialGradient
       inkscape:collect="always"
       xlink:href="#linearGradient4546"
       id="radialGradient4552"
       cx="271.73105"
       cy="310.47458"
       fx="271.73105"
       fy="310.47458"
       r="148.49243"
       gradientTransform="matrix(1,0,0,1.0374149,0,-11.61638)"
       gradientUnits="userSpaceOnUse" />
  </defs>
  <sodipodi:namedview
     id="base"
     pagecolor="#ffffff"
     bordercolor="#666666"
     borderopacity="0"
     inkscape:pageopacity="0.0"
     inkscape:pageshadow="2"
     inkscape:zoom="0.7"
     inkscape:cx="-166.70765"
     inkscape:cy="340.40996"
     inkscape:document-units="px"
     inkscape:current-layer="layer1"
     showgrid="false"
     showborder="true"
     borderlayer="false"
     inkscape:window-width="1600"
     inkscape:window-height="828"
     inkscape:window-x="-4"
     inkscape:window-y="-4"
     inkscape:window-maximized="1" />
  <metadata
     id="metadata3858">
    <rdf:RDF>
      <cc:Work
         rdf:about="">
        <dc:format>image/svg+xml</dc:format>
        <dc:type
           rdf:resource="http://purl.org/dc/dcmitype/StillImage" />
        <dc:title />
      </cc:Work>
    </rdf:RDF>
  </metadata>
  <g
     inkscape:label="Layer 1"
     inkscape:groupmode="layer"
     id="layer1"
     transform="translate(0,-540.36218)">
    <path
       sodipodi:type="arc"
       style="color:#000000;fill:#ffff00;fill-opacity:1;fill-rule:nonzero;stroke:#000000;stroke-width:1;stroke-linecap:butt;stroke-linejoin:miter;stroke-miterlimit:4;stroke-opacity:1;stroke-dasharray:none;stroke-dashoffset:0;marker:none;visibility:visible;display:inline;overflow:visible;enable-background:accumulate"
       id="path3008"
       sodipodi:cx="257.14285"
       sodipodi:cy="282"
       sodipodi:rx="267.14285"
       sodipodi:ry="254.28572"
       d="M 524.28571,282 A 267.14285,254.28572 0 1 1 -10,282 a 267.14285,254.28572 0 1 1 534.28571,0 z"
       transform="matrix(0.88786639,0.00376506,-0.00375528,0.92714063,30.904054,534.9043)" />
    <path
       sodipodi:type="arc"
       style="color:#000000;fill:#009900;fill-opacity:1;fill-rule:nonzero;stroke:url(#radialGradient4552);stroke-width:2.00520370000000000;stroke-linecap:butt;stroke-linejoin:miter;stroke-miterlimit:4;stroke-opacity:1;stroke-dasharray:none;stroke-dashoffset:0;marker:none;visibility:visible;display:inline;overflow:visible;enable-background:accumulate"
       id="path4016"
       sodipodi:cx="271.73105"
       sodipodi:cy="310.47458"
       sodipodi:rx="148.49243"
       sodipodi:ry="154.04826"
       d="m 420.22348,310.47458 a 148.49243,154.04826 0 1 1 -296.98486,0 148.49243,154.04826 0 1 1 296.98486,0 z"
       transform="matrix(1.522139,0,0,1.4705209,-154.97276,340.73931)" />
    <path
       style="fill:#ffffff;fill-rule:evenodd;stroke:#000000;stroke-width:1.13523757px;stroke-linecap:butt;stroke-linejoin:miter;stroke-opacity:1"
       d="m 277.75887,589.94721 c -0.33456,-0.0119 -0.6684,0.003 -1,0.0312 -2.41164,0.20309 -4.70136,1.46849 -6.71875,3.875 l -13.21875,15.71875 -11.40625,-13.65625 c -6.45563,-7.70084 -16.07796,-3.68354 -21.5625,9.0625 l -121.9375,283.40625 c -5.48454,12.74604 -4.73688,29.23663 1.71875,36.9375 l 31.1875,37.21875 c 6.45563,7.70087 16.07796,3.62104 21.5625,-9.125 l 41.96875,-97.53125 66.875,0 c 5.84869,0 10.53125,-4.78955 10.53125,-10.71875 l 0,-26.5625 c 0,-5.9292 -4.68256,-10.6875 -10.53125,-10.6875 l -46.25,0 39.15625,-90.96875 100.875,234.4375 c 5.48455,12.74604 15.10687,16.76337 21.5625,9.0625 l 31.1875,-37.1875 c 6.45563,-7.70087 7.26579,-24.12896 1.78125,-36.875 L 291.60262,602.97846 c -3.53495,-8.21522 -8.82535,-12.85233 -13.84375,-13.03125 z"
       id="rect4558"
       inkscape:connector-curvature="0" />
  </g>
</svg>
