<?xml version="1.0" encoding="UTF-8" standalone="no"?>
<!-- Created with Inkscape (http://www.inkscape.org/) -->

<svg
   xmlns:dc="http://purl.org/dc/elements/1.1/"
   xmlns:cc="http://creativecommons.org/ns#"
   xmlns:rdf="http://www.w3.org/1999/02/22-rdf-syntax-ns#"
   xmlns:svg="http://www.w3.org/2000/svg"
   xmlns="http://www.w3.org/2000/svg"
   xmlns:sodipodi="http://sodipodi.sourceforge.net/DTD/sodipodi-0.dtd"
   xmlns:inkscape="http://www.inkscape.org/namespaces/inkscape"
   width="384"
   height="384"
   id="svg2"
   version="1.1"
   inkscape:version="0.48.2 r9819"
   sodipodi:docname="icon4.svg"
   inkscape:export-filename="D:\Google-Code-SVN\beam-cable-auto-authenticator\icon-src\icon4.png"
   inkscape:export-xdpi="90"
   inkscape:export-ydpi="90">
  <defs
     id="defs4">
    <marker
       inkscape:stockid="Arrow1Lstart"
       orient="auto"
       refY="0"
       refX="0"
       id="Arrow1Lstart"
       style="overflow:visible">
      <path
         id="path3813"
         d="M 0,0 5,-5 -12.5,0 5,5 0,0 z"
         style="fill-rule:evenodd;stroke:#000000;stroke-width:1pt;marker-start:none"
         transform="matrix(0.8,0,0,0.8,10,0)"
         inkscape:connector-curvature="0" />
    </marker>
  </defs>
  <sodipodi:namedview
     id="base"
     pagecolor="#ffffff"
     bordercolor="#666666"
     borderopacity="1"
     inkscape:pageopacity="0.0"
     inkscape:pageshadow="2"
     inkscape:zoom="0.7"
     inkscape:cx="428.27724"
     inkscape:cy="283.79848"
     inkscape:document-units="px"
     inkscape:current-layer="layer1"
     showgrid="false"
     borderlayer="true"
     inkscape:showpageshadow="true"
     showborder="true"
     inkscape:window-width="1600"
     inkscape:window-height="828"
     inkscape:window-x="-4"
     inkscape:window-y="-4"
     inkscape:window-maximized="1" />
  <metadata
     id="metadata7">
    <rdf:RDF>
      <cc:Work
         rdf:about="">
        <dc:format>image/svg+xml</dc:format>
        <dc:type
           rdf:resource="http://purl.org/dc/dcmitype/StillImage" />
        <dc:title></dc:title>
      </cc:Work>
    </rdf:RDF>
  </metadata>
  <g
     inkscape:label="Layer 1"
     inkscape:groupmode="layer"
     id="layer1"
     transform="translate(0,-668.36215)">
    <path
       sodipodi:type="arc"
       style="color:#000000;fill:#ffff00;fill-opacity:1;fill-rule:nonzero;stroke:#000000;stroke-width:1;stroke-linecap:butt;stroke-linejoin:miter;stroke-miterlimit:4;stroke-opacity:1;stroke-dasharray:none;stroke-dashoffset:0;marker:none;visibility:visible;display:inline;overflow:visible;enable-background:accumulate"
       id="path3806"
       sodipodi:cx="-380"
       sodipodi:cy="707.71429"
       sodipodi:rx="4.2857141"
       sodipodi:ry="4.2857141"
       d="m -375.71429,707.71429 c 0,0.0168 -10e-5,0.0337 -2.9e-4,0.0505"
       transform="translate(0,540.36215)"
       sodipodi:start="0"
       sodipodi:end="0.011789397"
       sodipodi:open="true" />
    <g
       id="g4691"
       transform="matrix(0.7819061,0,0,0.76961618,-487.34364,252.01802)">
      <path
         transform="matrix(0.94049293,0,0,0.9584402,626.62844,551.57315)"
         d="m 515.71429,252.71428 c 0,139.25464 -115.12677,252.14284 -257.14285,252.14284 -142.01607,0 -257.1428511,-112.8882 -257.1428511,-252.14284 0,-139.25464 115.1267811,-252.14283835 257.1428511,-252.14283835 142.01608,0 257.14285,112.88819835 257.14285,252.14283835 z"
         sodipodi:ry="252.14284"
         sodipodi:rx="257.14285"
         sodipodi:cy="252.71428"
         sodipodi:cx="258.57144"
         id="path2987"
         style="color:#000000;fill:#ffffff;fill-opacity:1;fill-rule:nonzero;stroke:#000000;stroke-width:4.99720287;stroke-linecap:butt;stroke-linejoin:miter;stroke-miterlimit:4;stroke-opacity:1;stroke-dasharray:none;stroke-dashoffset:0;marker:none;visibility:visible;display:inline;overflow:visible;enable-background:accumulate"
         sodipodi:type="arc" />
      <path
         transform="matrix(0.98796416,0,0,1.0133159,614.66607,538.82106)"
         d="M 258.5625,28.75 C 131.44984,28.75 29.625,128.97773 29.625,252.71875 c 0,123.74122 101.8204,223.9375 228.9375,223.9375 127.1169,0 228.96875,-100.20082 228.96875,-223.9375 C 487.53125,128.98227 385.67496,28.75 258.5625,28.75 z"
         id="path4689"
         style="color:#000000;fill:#ff0000;fill-opacity:1;fill-rule:nonzero;stroke:#000000;stroke-width:2.99832177;stroke-linecap:butt;stroke-linejoin:miter;stroke-miterlimit:4;stroke-opacity:1;stroke-dasharray:none;stroke-dashoffset:0;marker:none;visibility:visible;display:inline;overflow:visible;enable-background:accumulate"
         inkscape:original="M 258.5625 17.46875 C 125.50094 17.46875 18.34375 122.77907 18.34375 252.71875 C 18.34375 382.65848 125.49839 487.9375 258.5625 487.9375 C 391.62656 487.9375 498.8125 382.65587 498.8125 252.71875 C 498.8125 122.78168 391.62401 17.46875 258.5625 17.46875 z "
         inkscape:radius="-11.274814"
         sodipodi:type="inkscape:offset" />
    </g>
    <rect
       style="fill:#4d4d4d;fill-rule:evenodd;stroke:#000000;stroke-width:2.1650033;stroke-linecap:butt;stroke-linejoin:miter;stroke-miterlimit:4;stroke-opacity:1;stroke-dasharray:none"
       id="rect4617"
       width="263.5531"
       height="63.970837"
       x="61.326023"
       y="897.59546" />
    <g
       id="g4600"
       transform="matrix(0.34364896,0,0,0.39039211,342.52045,633.90606)">
      <rect
         y="-75.477058"
         x="-1032.1843"
         height="420.54065"
         width="51.751728"
         id="rect4568"
         style="fill:#ffffff;fill-rule:evenodd;stroke:#000000;stroke-width:9.38228226;stroke-linecap:butt;stroke-linejoin:miter;stroke-miterlimit:4;stroke-opacity:1;stroke-dasharray:none"
         transform="matrix(0.92572375,-0.37820039,0.49592259,0.86836674,0,0)" />
      <rect
         transform="matrix(-0.92572375,-0.37820039,-0.49592259,0.86836674,0,0)"
         style="fill:#ffffff;fill-rule:evenodd;stroke:#000000;stroke-width:9.38228226;stroke-linecap:butt;stroke-linejoin:miter;stroke-miterlimit:4;stroke-opacity:1;stroke-dasharray:none"
         id="rect4615"
         width="51.751728"
         height="420.54065"
         x="-262.47018"
         y="259.75812" />
      <g
         transform="matrix(0.91127948,0,0,0.89458416,-1301.2815,-112.96079)"
         id="g4519">
        <g
           id="g4562">
          <path
             sodipodi:type="arc"
             style="color:#000000;fill:#ffffff;fill-opacity:1;fill-rule:nonzero;stroke:#000000;stroke-width:4.0999999;stroke-linecap:butt;stroke-linejoin:miter;stroke-miterlimit:4;stroke-opacity:1;stroke-dasharray:none;stroke-dashoffset:0;marker:none;visibility:visible;display:inline;overflow:visible;enable-background:accumulate"
             id="path4548"
             sodipodi:cx="1115.2084"
             sodipodi:cy="269.56339"
             sodipodi:rx="165.66502"
             sodipodi:ry="191.92899"
             d="m 1280.8734,269.56339 c 0,105.99945 -74.1708,191.92898 -165.665,191.92898 -91.4943,0 -165.66505,-85.92953 -165.66505,-191.92898 0,-1e-5 0,-1e-5 0,-1e-5 l 165.66505,1e-5 z"
             transform="matrix(1.7637536,0,0,-1.9605852,-1028.5211,1552.838)"
             sodipodi:start="0"
             sodipodi:end="3.1415927" />
          <path
             sodipodi:type="inkscape:offset"
             inkscape:radius="-16.162441"
             inkscape:original="M 949.53125 269.5625 C 949.53125 375.56195 1023.7245 461.5 1115.2188 461.5 C 1206.713 461.5 1280.875 375.56195 1280.875 269.5625 L 1115.2188 269.5625 L 949.53125 269.5625 z "
             style="color:#000000;fill:#ffffff;fill-opacity:1;fill-rule:nonzero;stroke:#000000;stroke-width:4.0999999;stroke-linecap:butt;stroke-linejoin:miter;stroke-miterlimit:4;stroke-opacity:1;stroke-dasharray:none;stroke-dashoffset:0;marker:none;visibility:visible;display:inline;overflow:visible;enable-background:accumulate"
             id="path4554"
             d="m 966.375,285.71875 c 6.98733,90.6108 71.9878,159.625 148.8438,159.625 76.8558,0 141.8282,-69.01184 148.8124,-159.625 l -148.8124,0 -148.8438,0 z"
             transform="matrix(1.7637536,0,0,-1.9605852,-1028.5211,1552.838)" />
          <path
             transform="matrix(1.7637536,0,0,-1.9605852,-1028.5211,1552.838)"
             d="m 987.03125,303.90625 c 13.27125,72.2777 67.44225,123.25 128.18755,123.25 60.7451,0 114.8911,-50.96923 128.1562,-123.25 l -128.1562,0 -128.18755,0 z"
             id="path4556"
             style="color:#000000;fill:#ffffff;fill-opacity:1;fill-rule:nonzero;stroke:#000000;stroke-width:4.0999999;stroke-linecap:butt;stroke-linejoin:miter;stroke-miterlimit:4;stroke-opacity:1;stroke-dasharray:none;stroke-dashoffset:0;marker:none;visibility:visible;display:inline;overflow:visible;enable-background:accumulate"
             inkscape:original="M 949.53125 269.5625 C 949.53125 375.56195 1023.7245 461.5 1115.2188 461.5 C 1206.713 461.5 1280.875 375.56195 1280.875 269.5625 L 1115.2188 269.5625 L 949.53125 269.5625 z "
             inkscape:radius="-34.338997"
             sodipodi:type="inkscape:offset" />
          <path
             sodipodi:type="inkscape:offset"
             inkscape:radius="-54.546803"
             inkscape:original="M 949.53125 269.5625 C 949.53125 375.56195 1023.7245 461.5 1115.2188 461.5 C 1206.713 461.5 1280.875 375.56195 1280.875 269.5625 L 1115.2188 269.5625 L 949.53125 269.5625 z "
             style="color:#000000;fill:#ffffff;fill-opacity:1;fill-rule:nonzero;stroke:#000000;stroke-width:4.0999999;stroke-linecap:butt;stroke-linejoin:miter;stroke-miterlimit:4;stroke-opacity:1;stroke-dasharray:none;stroke-dashoffset:0;marker:none;visibility:visible;display:inline;overflow:visible;enable-background:accumulate"
             id="path4558"
             d="m 1013.0938,324.09375 c 17.6493,50.47434 58.8684,82.875 102.125,82.875 43.2564,0 84.4531,-32.39906 102.0937,-82.875 l -102.0937,0 -102.125,0 z"
             transform="matrix(1.7637536,0,0,-1.9605852,-1028.5211,1552.838)" />
        </g>
        <rect
           y="813.96613"
           x="520.3111"
           height="210.11172"
           width="859.40289"
           id="rect4560"
           style="fill:#ffffff;fill-rule:evenodd;stroke:#000000;stroke-width:6.03252983;stroke-linecap:butt;stroke-linejoin:miter;stroke-miterlimit:4;stroke-opacity:1;stroke-dasharray:none" />
      </g>
      <path
         transform="matrix(0.70873403,0,-0.34505345,0.69796259,-1247.5391,423.8103)"
         d="m 996.01041,407.95428 c 0,25.10514 -18.09043,45.45687 -40.4061,45.45687 -22.31567,0 -40.4061,-20.35173 -40.4061,-45.45687 0,-25.10513 18.09043,-45.45686 40.4061,-45.45686 22.31567,0 40.4061,20.35173 40.4061,45.45686 z"
         sodipodi:ry="45.456863"
         sodipodi:rx="40.406101"
         sodipodi:cy="407.95428"
         sodipodi:cx="955.60431"
         id="path4592"
         style="color:#000000;fill:#ffffff;fill-opacity:1;fill-rule:nonzero;stroke:#000000;stroke-width:8.04770184;stroke-linecap:butt;stroke-linejoin:miter;stroke-miterlimit:4;stroke-opacity:1;stroke-dasharray:none;stroke-dashoffset:0;marker:none;visibility:visible;display:inline;overflow:visible;enable-background:accumulate"
         sodipodi:type="arc" />
      <path
         sodipodi:type="arc"
         style="color:#000000;fill:#ffffff;fill-opacity:1;fill-rule:nonzero;stroke:#000000;stroke-width:8.04770184;stroke-linecap:butt;stroke-linejoin:miter;stroke-miterlimit:4;stroke-opacity:1;stroke-dasharray:none;stroke-dashoffset:0;marker:none;visibility:visible;display:inline;overflow:visible;enable-background:accumulate"
         id="path4594"
         sodipodi:cx="955.60431"
         sodipodi:cy="407.95428"
         sodipodi:rx="40.406101"
         sodipodi:ry="45.456863"
         d="m 996.01041,407.95428 c 0,25.10514 -18.09043,45.45687 -40.4061,45.45687 -22.31567,0 -40.4061,-20.35173 -40.4061,-45.45687 0,-25.10513 18.09043,-45.45686 40.4061,-45.45686 22.31567,0 40.4061,20.35173 40.4061,45.45686 z"
         transform="matrix(0.70873403,0,-0.34505345,0.69796259,-1059.8156,425.59947)" />
      <path
         transform="matrix(0.70873403,0,-0.34505345,0.69796259,-866.6243,421.69815)"
         d="m 996.01041,407.95428 c 0,25.10514 -18.09043,45.45687 -40.4061,45.45687 -22.31567,0 -40.4061,-20.35173 -40.4061,-45.45687 0,-25.10513 18.09043,-45.45686 40.4061,-45.45686 22.31567,0 40.4061,20.35173 40.4061,45.45686 z"
         sodipodi:ry="45.456863"
         sodipodi:rx="40.406101"
         sodipodi:cy="407.95428"
         sodipodi:cx="955.60431"
         id="path4596"
         style="color:#000000;fill:#ffffff;fill-opacity:1;fill-rule:nonzero;stroke:#000000;stroke-width:8.04770184;stroke-linecap:butt;stroke-linejoin:miter;stroke-miterlimit:4;stroke-opacity:1;stroke-dasharray:none;stroke-dashoffset:0;marker:none;visibility:visible;display:inline;overflow:visible;enable-background:accumulate"
         sodipodi:type="arc" />
      <path
         sodipodi:type="arc"
         style="color:#000000;fill:#ffffff;fill-opacity:1;fill-rule:nonzero;stroke:#000000;stroke-width:8.04770184;stroke-linecap:butt;stroke-linejoin:miter;stroke-miterlimit:4;stroke-opacity:1;stroke-dasharray:none;stroke-dashoffset:0;marker:none;visibility:visible;display:inline;overflow:visible;enable-background:accumulate"
         id="path4598"
         sodipodi:cx="955.60431"
         sodipodi:cy="407.95428"
         sodipodi:rx="40.406101"
         sodipodi:ry="45.456863"
         d="m 996.01041,407.95428 c 0,25.10514 -18.09043,45.45687 -40.4061,45.45687 -22.31567,0 -40.4061,-20.35173 -40.4061,-45.45687 0,-25.10513 18.09043,-45.45686 40.4061,-45.45686 22.31567,0 40.4061,20.35173 40.4061,45.45686 z"
         transform="matrix(0.70873403,0,-0.34505345,0.69796259,-686.19096,421.69815)" />
    </g>
  </g>
</svg>
