<?xml version="1.0" encoding="UTF-8" standalone="no"?>
<!-- Created with Inkscape (http://www.inkscape.org/) -->

<svg
   xmlns:dc="http://purl.org/dc/elements/1.1/"
   xmlns:cc="http://creativecommons.org/ns#"
   xmlns:rdf="http://www.w3.org/1999/02/22-rdf-syntax-ns#"
   xmlns:svg="http://www.w3.org/2000/svg"
   xmlns="http://www.w3.org/2000/svg"
   xmlns:sodipodi="http://sodipodi.sourceforge.net/DTD/sodipodi-0.dtd"
   xmlns:inkscape="http://www.inkscape.org/namespaces/inkscape"
   width="512"
   height="512"
   id="svg3762"
   version="1.1"
   inkscape:version="0.48.2 r9819"
   sodipodi:docname="New document 2">
  <defs
     id="defs3764" />
  <sodipodi:namedview
     id="base"
     pagecolor="#ffffff"
     bordercolor="#666666"
     borderopacity="0"
     inkscape:pageopacity="0.0"
     inkscape:pageshadow="2"
     inkscape:zoom="0.98994949"
     inkscape:cx="397.59454"
     inkscape:cy="235.07217"
     inkscape:document-units="px"
     inkscape:current-layer="layer1"
     showgrid="false"
     inkscape:showpageshadow="false"
     showborder="true"
     inkscape:window-width="1600"
     inkscape:window-height="828"
     inkscape:window-x="-4"
     inkscape:window-y="-4"
     inkscape:window-maximized="1" />
  <metadata
     id="metadata3767">
    <rdf:RDF>
      <cc:Work
         rdf:about="">
        <dc:format>image/svg+xml</dc:format>
        <dc:type
           rdf:resource="http://purl.org/dc/dcmitype/StillImage" />
        <dc:title></dc:title>
      </cc:Work>
    </rdf:RDF>
  </metadata>
  <g
     inkscape:label="Layer 1"
     inkscape:groupmode="layer"
     id="layer1"
     transform="translate(0,-540.36218)">
    <rect
       style="fill:#f44800;fill-rule:evenodd;stroke:#000000;stroke-width:1.01250744000000000px;stroke-linecap:butt;stroke-linejoin:miter;stroke-opacity:1"
       id="rect3772"
       width="510.59106"
       height="507.08755"
       x="0.0045138127"
       y="541.22949"
       rx="8.1361675"
       ry="8.0641136" />
    <path
       style="fill:#0000ff;fill-rule:evenodd;stroke:#000000;stroke-width:0.91762984px;stroke-linecap:butt;stroke-linejoin:miter;stroke-opacity:1"
       d="m 261.75307,564.41395 c -27.69896,0 -53.19918,10.1152 -73.47206,27.0687 l 0,-17.1935 c 0,-4.9441 -1.74905,-8.9347 -3.91701,-8.9347 l -40.09348,0 c -2.16797,0 -3.91702,3.9906 -3.91702,8.9347 l 0,314.80215 c -0.13501,2.49631 -0.22383,4.99136 -0.22383,7.52398 0,2.53262 0.0888,5.05705 0.22383,7.55337 l 0,113.03605 c 0,4.9441 1.74905,8.9347 3.91702,8.9347 l 40.09348,0 c 2.16796,0 3.91701,-3.9906 3.91701,-8.9347 l 0,-17.72257 c 19.93281,15.94917 44.67646,25.39337 71.4576,25.39337 66.0454,0 119.58095,-57.42628 119.58095,-128.26023 0,-41.08898 -18.03127,-77.6599 -46.05294,-101.13286 29.17831,-23.38748 48.0674,-60.73552 48.0674,-102.80813 0,-70.83394 -53.53555,-128.26033 -119.58095,-128.26033 z"
       id="rect3800"
       inkscape:connector-curvature="0" />
    <path
       sodipodi:type="arc"
       style="color:#000000;fill:#ffff00;fill-opacity:1;fill-rule:nonzero;stroke:#000000;stroke-width:1;stroke-linecap:butt;stroke-linejoin:miter;stroke-miterlimit:4;stroke-opacity:1;stroke-dasharray:none;stroke-dashoffset:0;marker:none;visibility:visible;display:inline;overflow:visible;enable-background:accumulate"
       id="path3825"
       sodipodi:cx="-164.1498"
       sodipodi:cy="225.62175"
       sodipodi:rx="93.43911"
       sodipodi:ry="148.9975"
       d="M -70.710686,225.62175 A 93.43911,148.9975 0 1 1 -257.56866,222.52018"
       transform="matrix(0.89531831,0,0,0.94049741,409.85846,635.80913)"
       sodipodi:start="0"
       sodipodi:end="3.1624104"
       sodipodi:open="true" />
    <path
       sodipodi:type="arc"
       style="color:#000000;fill:#ffff00;fill-opacity:1;fill-rule:nonzero;stroke:#000000;stroke-width:1;stroke-linecap:butt;stroke-linejoin:miter;stroke-miterlimit:4;stroke-opacity:1;stroke-dasharray:none;stroke-dashoffset:0;marker:none;visibility:visible;display:inline;overflow:visible;enable-background:accumulate"
       id="path3825-4"
       sodipodi:cx="-164.1498"
       sodipodi:cy="225.62175"
       sodipodi:rx="93.43911"
       sodipodi:ry="148.9975"
       d="M -70.710686,225.62175 A 93.43911,148.9975 0 1 1 -257.56866,222.52018"
       transform="matrix(0.89531831,0,0,-0.94049741,407.59743,952.57631)"
       sodipodi:start="0"
       sodipodi:end="3.1624104"
       sodipodi:open="true" />
  </g>
</svg>
