<?xml version="1.0" encoding="UTF-8" standalone="no"?>
<!-- Created with Inkscape (http://www.inkscape.org/) -->

<svg
   xmlns:dc="http://purl.org/dc/elements/1.1/"
   xmlns:cc="http://creativecommons.org/ns#"
   xmlns:rdf="http://www.w3.org/1999/02/22-rdf-syntax-ns#"
   xmlns:svg="http://www.w3.org/2000/svg"
   xmlns="http://www.w3.org/2000/svg"
   xmlns:sodipodi="http://sodipodi.sourceforge.net/DTD/sodipodi-0.dtd"
   xmlns:inkscape="http://www.inkscape.org/namespaces/inkscape"
   width="512"
   height="512"
   id="svg2"
   version="1.1"
   inkscape:version="0.48.2 r9819"
   sodipodi:docname="icon5.svg"
   inkscape:export-filename="D:\Google-Code-SVN\beam-cable-auto-authenticator\icon-src\icon5.png"
   inkscape:export-xdpi="90"
   inkscape:export-ydpi="90">
  <defs
     id="defs4">
    <linearGradient
       id="linearGradient3765">
      <stop
         style="stop-color:#ff9bec;stop-opacity:1;"
         offset="0"
         id="stop3767" />
      <stop
         style="stop-color:#000000;stop-opacity:0;"
         offset="1"
         id="stop3769" />
    </linearGradient>
  </defs>
  <sodipodi:namedview
     id="base"
     pagecolor="#ffffff"
     bordercolor="#666666"
     borderopacity="1.0"
     inkscape:pageopacity="0.0"
     inkscape:pageshadow="2"
     inkscape:zoom="1.8101934"
     inkscape:cx="327.87168"
     inkscape:cy="-32.216777"
     inkscape:document-units="px"
     inkscape:current-layer="layer1"
     showgrid="false"
     inkscape:window-width="1600"
     inkscape:window-height="828"
     inkscape:window-x="-4"
     inkscape:window-y="-4"
     inkscape:window-maximized="1"
     showguides="true"
     inkscape:guide-bbox="true" />
  <metadata
     id="metadata7">
    <rdf:RDF>
      <cc:Work
         rdf:about="">
        <dc:format>image/svg+xml</dc:format>
        <dc:type
           rdf:resource="http://purl.org/dc/dcmitype/StillImage" />
        <dc:title></dc:title>
      </cc:Work>
    </rdf:RDF>
  </metadata>
  <g
     inkscape:label="Layer 1"
     inkscape:groupmode="layer"
     id="layer1"
     transform="translate(0,-540.36218)">
    <g
       id="g3891"
       transform="matrix(0.97191414,0,0,1.0463672,-693.10747,-47.917107)"
       inkscape:export-xdpi="90"
       inkscape:export-ydpi="90">
      <path
         transform="translate(0,540.36218)"
         d="m 1285.7143,311.28571 c 0,157.40115 -137.8324,285 -307.85718,285 -170.02481,0 -307.85715,-127.59885 -307.85715,-285 0,-157.40116 137.83234,-285.000004 307.85715,-285.000004 170.02478,0 307.85718,127.598844 307.85718,285.000004 z"
         sodipodi:ry="285"
         sodipodi:rx="307.85715"
         sodipodi:cy="311.28571"
         sodipodi:cx="977.85712"
         id="path3867"
         style="color:#000000;fill:#ff6600;fill-opacity:1;fill-rule:nonzero;stroke:#000000;stroke-width:4.7566638;stroke-linecap:butt;stroke-linejoin:miter;stroke-miterlimit:4;stroke-opacity:1;stroke-dasharray:none;stroke-dashoffset:0;marker:none;visibility:visible;display:inline;overflow:visible;enable-background:accumulate"
         sodipodi:type="arc" />
      <path
         transform="translate(0,540.36218)"
         d="m 977.84375,64.75 c -150.7831,0 -269.375,111.57978 -269.375,246.53125 0,134.95147 118.5919,246.53125 269.375,246.53125 150.78315,0 269.40625,-111.58488 269.40625,-246.53125 C 1247.25,176.33488 1128.6269,64.75 977.84375,64.75 z"
         id="path3871"
         style="color:#000000;fill:#808000;fill-opacity:1;fill-rule:nonzero;stroke:#000000;stroke-width:4.7566638;stroke-linecap:butt;stroke-linejoin:miter;stroke-miterlimit:4;stroke-opacity:1;stroke-dasharray:none;stroke-dashoffset:0;marker:none;visibility:visible;display:inline;overflow:visible;enable-background:accumulate"
         inkscape:original="M 977.84375 26.28125 C 807.81894 26.28125 670 153.8801 670 311.28125 C 670 468.6824 807.81894 596.28125 977.84375 596.28125 C 1147.8686 596.28125 1285.7188 468.6824 1285.7188 311.28125 C 1285.7188 153.8801 1147.8686 26.28125 977.84375 26.28125 z "
         inkscape:radius="-38.459221"
         sodipodi:type="inkscape:offset" />
      <path
         sodipodi:type="inkscape:offset"
         inkscape:radius="-95.624344"
         inkscape:original="M 977.84375 26.28125 C 807.81894 26.28125 670 153.8801 670 311.28125 C 670 468.6824 807.81894 596.28125 977.84375 596.28125 C 1147.8686 596.28125 1285.7188 468.6824 1285.7188 311.28125 C 1285.7188 153.8801 1147.8686 26.28125 977.84375 26.28125 z "
         style="color:#000000;fill:#ff5555;fill-opacity:1;fill-rule:nonzero;stroke:#000000;stroke-width:4.7566638;stroke-linecap:butt;stroke-linejoin:miter;stroke-miterlimit:4;stroke-opacity:1;stroke-dasharray:none;stroke-dashoffset:0;marker:none;visibility:visible;display:inline;overflow:visible;enable-background:accumulate"
         id="path3873"
         d="m 977.84375,121.90625 c -122.18255,0 -212.21875,87.79236 -212.21875,189.375 0,101.58264 90.0362,189.375 212.21875,189.375 122.18265,0 212.25005,-87.80502 212.25005,-189.375 0,-101.56998 -90.0674,-189.375 -212.25005,-189.375 z"
         transform="translate(0,540.36218)" />
      <path
         transform="translate(425.71429,611.79075)"
         d="m 754.28574,4.1428571 c 0,12.2291619 -9.91369,22.1428569 -22.14286,22.1428569 -12.22916,0 -22.14285,-9.913695 -22.14285,-22.1428569 C 710.00003,-8.0863049 719.91372,-18 732.14288,-18 c 12.22917,0 22.14286,9.9136951 22.14286,22.1428571 z"
         sodipodi:ry="22.142857"
         sodipodi:rx="22.142857"
         sodipodi:cy="4.1428571"
         sodipodi:cx="732.14288"
         id="path3875"
         style="color:#000000;fill:#808000;fill-opacity:1;fill-rule:nonzero;stroke:#000000;stroke-width:4.7566638;stroke-linecap:butt;stroke-linejoin:miter;stroke-miterlimit:4;stroke-opacity:1;stroke-dasharray:none;stroke-dashoffset:0;marker:none;visibility:visible;display:inline;overflow:visible;enable-background:accumulate"
         sodipodi:type="arc" />
      <path
         sodipodi:type="arc"
         style="color:#000000;fill:#ff8080;fill-opacity:1;fill-rule:nonzero;stroke:#000000;stroke-width:4.7566638;stroke-linecap:butt;stroke-linejoin:miter;stroke-miterlimit:4;stroke-opacity:1;stroke-dasharray:none;stroke-dashoffset:0;marker:none;visibility:visible;display:inline;overflow:visible;enable-background:accumulate"
         id="path3877"
         sodipodi:cx="732.14288"
         sodipodi:cy="4.1428571"
         sodipodi:rx="22.142857"
         sodipodi:ry="22.142857"
         d="m 754.28574,4.1428571 c 0,12.2291619 -9.91369,22.1428569 -22.14286,22.1428569 -12.22916,0 -22.14285,-9.913695 -22.14285,-22.1428569 C 710.00003,-8.0863049 719.91372,-18 732.14288,-18 c 12.22917,0 22.14286,9.9136951 22.14286,22.1428571 z"
         transform="translate(79.71429,651.79075)" />
      <path
         transform="translate(0,540.36218)"
         d="m 977.84375,176.15625 c -96.19984,0 -157.96875,65.59284 -157.96875,135.125 0,69.53216 61.76891,135.125 157.96875,135.125 96.19625,0 158.00005,-65.6206 158.00005,-135.125 0,-69.5044 -61.8038,-135.125 -158.00005,-135.125 z"
         id="path3885"
         style="color:#000000;fill:#ff7f2a;fill-opacity:1;fill-rule:nonzero;stroke:#000000;stroke-width:4.7566638;stroke-linecap:butt;stroke-linejoin:miter;stroke-miterlimit:4;stroke-opacity:1;stroke-dasharray:none;stroke-dashoffset:0;marker:none;visibility:visible;display:inline;overflow:visible;enable-background:accumulate"
         inkscape:original="M 977.84375 176.15625 C 881.64391 176.15625 819.875 241.74909 819.875 311.28125 C 819.875 380.81341 881.64391 446.40625 977.84375 446.40625 C 1074.04 446.40625 1135.8438 380.78565 1135.8438 311.28125 C 1135.8438 241.77685 1074.04 176.15625 977.84375 176.15625 z "
         inkscape:radius="0"
         sodipodi:type="inkscape:offset" />
      <path
         transform="translate(363.71429,686.36218)"
         d="m 754.28574,4.1428571 c 0,12.2291619 -9.91369,22.1428569 -22.14286,22.1428569 -12.22916,0 -22.14285,-9.913695 -22.14285,-22.1428569 C 710.00003,-8.0863049 719.91372,-18 732.14288,-18 c 12.22917,0 22.14286,9.9136951 22.14286,22.1428571 z"
         sodipodi:ry="22.142857"
         sodipodi:rx="22.142857"
         sodipodi:cy="4.1428571"
         sodipodi:cx="732.14288"
         id="path3883"
         style="color:#000000;fill:#ff7f2a;fill-opacity:1;fill-rule:nonzero;stroke:#000000;stroke-width:4.7566638;stroke-linecap:butt;stroke-linejoin:miter;stroke-miterlimit:4;stroke-opacity:1;stroke-dasharray:none;stroke-dashoffset:0;marker:none;visibility:visible;display:inline;overflow:visible;enable-background:accumulate"
         sodipodi:type="arc" />
      <path
         sodipodi:type="inkscape:offset"
         inkscape:radius="-50.491787"
         inkscape:original="M 977.84375 176.15625 C 881.64391 176.15625 819.875 241.74909 819.875 311.28125 C 819.875 380.81341 881.64391 446.40625 977.84375 446.40625 C 1074.04 446.40625 1135.8438 380.78565 1135.8438 311.28125 C 1135.8438 241.77685 1074.04 176.15625 977.84375 176.15625 z "
         style="color:#000000;fill:#917c6f;fill-opacity:1;fill-rule:nonzero;stroke:#000000;stroke-width:4.7566638;stroke-linecap:butt;stroke-linejoin:miter;stroke-miterlimit:4;stroke-opacity:1;stroke-dasharray:none;stroke-dashoffset:0;marker:none;visibility:visible;display:inline;overflow:visible;enable-background:accumulate"
         id="path3887"
         d="m 977.84375,226.65625 c -73.24831,0 -107.46875,44.99577 -107.46875,84.625 0,39.62923 34.22044,84.625 107.46875,84.625 73.23415,0 107.50005,-45.05237 107.50005,-84.625 0,-39.57263 -34.2659,-84.625 -107.50005,-84.625 z"
         transform="translate(0,540.36218)" />
      <path
         sodipodi:type="arc"
         style="color:#000000;fill:#917c6f;fill-opacity:1;fill-rule:nonzero;stroke:#000000;stroke-width:4.7566638;stroke-linecap:butt;stroke-linejoin:miter;stroke-miterlimit:4;stroke-opacity:1;stroke-dasharray:none;stroke-dashoffset:0;marker:none;visibility:visible;display:inline;overflow:visible;enable-background:accumulate"
         id="path3889"
         sodipodi:cx="732.14288"
         sodipodi:cy="4.1428571"
         sodipodi:rx="22.142857"
         sodipodi:ry="22.142857"
         d="m 754.28574,4.1428571 c 0,12.2291619 -9.91369,22.1428569 -22.14286,22.1428569 -12.22916,0 -22.14285,-9.913695 -22.14285,-22.1428569 C 710.00003,-8.0863049 719.91372,-18 732.14288,-18 c 12.22917,0 22.14286,9.9136951 22.14286,22.1428571 z"
         transform="translate(160.28572,732.93361)" />
      <path
         transform="translate(284.67778,772.35865)"
         d="m 754.28574,4.1428571 c 0,12.2291619 -9.91369,22.1428569 -22.14286,22.1428569 -12.22916,0 -22.14285,-9.913695 -22.14285,-22.1428569 C 710.00003,-8.0863049 719.91372,-18 732.14288,-18 c 12.22917,0 22.14286,9.9136951 22.14286,22.1428571 z"
         sodipodi:ry="22.142857"
         sodipodi:rx="22.142857"
         sodipodi:cy="4.1428571"
         sodipodi:cx="732.14288"
         id="path3910"
         style="color:#000000;fill:#d38d5f;fill-opacity:1;fill-rule:nonzero;stroke:#000000;stroke-width:4.75666380000000010;stroke-linecap:butt;stroke-linejoin:miter;stroke-miterlimit:4;stroke-opacity:1;stroke-dasharray:none;stroke-dashoffset:0;marker:none;visibility:visible;display:inline;overflow:visible;enable-background:accumulate"
         sodipodi:type="arc" />
      <path
         sodipodi:type="inkscape:offset"
         inkscape:radius="19.878155"
         inkscape:original="M 732.15625 -18 C 719.92709 -18 710 -8.072912 710 4.15625 C 710 16.385412 719.92709 26.28125 732.15625 26.28125 C 744.38541 26.28125 754.28125 16.385412 754.28125 4.15625 C 754.28125 -8.072912 744.38541 -18 732.15625 -18 z "
         style="color:#000000;fill:#ff0000;fill-opacity:1;fill-rule:nonzero;stroke:#000000;stroke-width:4.7566638;stroke-linecap:butt;stroke-linejoin:miter;stroke-miterlimit:4;stroke-opacity:1;stroke-dasharray:none;stroke-dashoffset:0;marker:none;visibility:visible;display:inline;overflow:visible;enable-background:accumulate"
         id="path3925"
         d="m 732.15625,-37.875 c -22.98663,0 -42.03125,19.04462 -42.03125,42.03125 0,22.98663 19.07849,42 42.03125,42 22.95276,0 42,-19.047234 42,-42 0,-22.952766 -19.01337,-42.03125 -42,-42.03125 z"
         transform="translate(245.65282,846.57049)" />
      <path
         style="fill:none;stroke:#000000;stroke-width:3.99999994;stroke-linecap:butt;stroke-linejoin:miter;stroke-opacity:1;stroke-miterlimit:4;stroke-dasharray:none"
         d="M 1.5152288,457.45176 C 1.0101525,145.8197 1.0101525,145.8197 1.0101525,145.8197"
         id="path3931"
         inkscape:connector-curvature="0"
         transform="matrix(1.0288975,0,0,0.95568745,713.13652,562.21113)" />
      <path
         style="fill:none;stroke:#000000;stroke-width:4.00120783;stroke-linecap:butt;stroke-linejoin:miter;stroke-miterlimit:4;stroke-opacity:1;stroke-dasharray:none"
         d="m 1239.325,1002.9423 c -0.5197,-303.06254 -0.5197,-303.06254 -0.5197,-303.06254"
         id="path3931-3"
         inkscape:connector-curvature="0" />
    </g>
    <path
       style="fill:none;stroke:#000000;stroke-width:4;stroke-linecap:butt;stroke-linejoin:miter;stroke-miterlimit:4;stroke-opacity:1;stroke-dasharray:none"
       d="m 43.087897,1050.7082 c 430.893193,-0.5605 430.343613,0.5458 430.343613,0.5458"
       id="path3953"
       inkscape:connector-curvature="0" />
  </g>
</svg>
